<svg xmlns="http://www.w3.org/2000/svg" viewBox="0 0 60 40"><rect width="60" height="40" fill="#00247d"/><rect x="25" width="10" height="40" fill="#fff"/><rect y="15" width="60" height="10" fill="#fff"/><rect x="27" width="6" height="40" fill="#cf142b"/><rect y="17" width="60" height="6" fill="#cf142b"/><polygon points="0,0 20,0 60,20 60,25 40,25 0,5" fill="#fff"/><polygon points="60,0 40,0 0,20 0,25 20,25 60,5" fill="#fff"/><polygon points="0,0 24,0 60,18 60,22 36,22 0,4" fill="#cf142b"/><polygon points="60,0 36,0 0,18 0,22 24,22 60,4" fill="#cf142b"/></svg> 